<?xml version="1.0" encoding="utf-8"?>
<svg version="1.1" id="Layer_1"
xmlns="http://www.w3.org/2000/svg"
xmlns:xlink="http://www.w3.org/1999/xlink"
width="550px" height="400px"
xml:space="preserve">
<g id="PathID_2" transform="matrix(2.33931, -0.0223418, 0.0223418, 2.33931, 94.35, 26.4)" opacity="1">
<path style="fill:#4A7DBC;fill-opacity:1" d="M150 0L150 27.6L136.55 33.35L136.55 48.75L109.1 61.25L109.1 75.75L91.15 81.35Q95.25 91.6 95.4 102.45Q95.4 122.4 81.65 136.1Q67.45 150.3 47.85 150.3Q25.35 150.3 12.1 135.65Q-0.15 122.4 0 102.45Q0 84.95 11.3 71.25Q24.15 55.4 47.1 55.4L56.6 55.85L122.1 0L150 0M127.5 27.6L141.1 21.3L141.1 9.2L123.75 9.2L57.5 64.9L47.1 64.15Q30.35 64.15 19.45 74.55Q8.75 85.4 8.75 102.45Q8.75 118.15 18.7 129.5Q29.6 141.1 47.85 141.1Q63.55 141.1 75.3 129.95Q86.95 118.15 86.95 102.45Q86.95 95.85 84.95 87.4Q82.4 78.35 79.1 75.45L100.35 69.1L100.35 55.4L127.5 42.4L127.5 27.6M47.85 109.55Q47.85 106.7 46.2 105.05Q44.05 102.9 41.5 102.9Q38.8 102.9 37.15 105.05Q35 106.7 35 109.55Q35 112 37.15 114.1Q38.8 116.05 41.5 116.2Q44.05 116.05 46.2 114.1Q47.85 112 47.85 109.55M51.15 119.05Q46.95 123.3 41.2 123.3Q35.3 123.3 31.25 119.05Q27 114.85 27 109.1Q27 103.25 31.25 99.15Q35.3 94.95 41.2 94.95Q46.95 94.95 51.15 99.15Q55.4 103.25 55.4 109.1Q55.4 114.85 51.15 119.05" />
</g>
</svg>
